<mxfile host="app.diagrams.net" modified="2024-03-25T08:44:52.544Z" agent="Mozilla/5.0 (Windows NT 10.0; Win64; x64) AppleWebKit/537.36 (KHTML, like Gecko) Chrome/122.0.0.0 Safari/537.36 Edg/122.0.0.0" version="24.1.0" etag="9tVsuUzlFygAwcsUB-Tk" type="github">
  <diagram name="第 1 页" id="EgE1_nMq9lK0knnacv-E">
    <mxGraphModel>
      <root>
        <mxCell id="0" />
        <mxCell id="1" parent="0" />
      </root>
    </mxGraphModel>
  </diagram>
</mxfile>
